<?xml version="1.0" encoding="utf-8"?>
<!-- Generator: Adobe Illustrator 18.1.1, SVG Export Plug-In . SVG Version: 6.00 Build 0)  -->
<svg version="1.1" id="Слой_1" xmlns="http://www.w3.org/2000/svg" xmlns:xlink="http://www.w3.org/1999/xlink" x="0px" y="0px"
	 viewBox="0 0 360 450" enable-background="new 0 0 360 450" xml:space="preserve">
<path fill-rule="evenodd" clip-rule="evenodd" fill="#030202" d="M178.2,10.8c5.6,0.9,8.6,5.4,12.6,5.4c-2.2,5.8-2.5,12,1.3,15.7
	c1.2,1.2,5.8,2.3,7.5,3.6c2.1,1.5,1,2.4,4.4,1.1c0,4.2-2.2,10.5-3.6,14.4c2.4,0,8.2-4,9.6-4.8c-0.8,3.8,5,4,5.8,9.7
	c0.7,5.7-1.5,6.6-6.1,10.8c-5.4,4.9-15.9,9.2-12.8,18.5c5.8-3.2,12.6-9.5,18.4-6.7c4.8,2.3,7.4,7.5,3.2,12.1c0.3,0,5.1,0.3,3.9,1.9
	c-1.3,1.9-11.5,11.4-6.3,14.6c-0.2-0.1,17.8-15.4,20-15.4c3,0,7.2,1.7,9,4.1c2.1,2.6-0.3,5.4,3.9,6.3c-2,3.1-2.9,6.7-5.7,9.3
	c-2.6,2.4-6.5,2.7-8.7,5.7c7.9,3,6.2,14.8,10.2,15.6c-4.4,4.1-2,1.7-1.2,5.7c0.8,0.3,1.6,0.6,2.4,0.9c-2.4,3.3-1.8,4.5,1.8,3.6
	c-1.6,1.2-1.8,2.6-0.6,4.2c7-4.6,10.1-8.4,19.2-10.2c-0.3,1.5-0.9,2.9-1.8,4.2c10.9-1.5,7.4,10.6,9,15c-4.9,0.3-11.4,6-15.4,8.7
	c-4.8,3.2-4.9,3.9-11,3.9c2.3,6.8,2,4.3,9.4,5.3c4.3,0.6,8.5,2,12.8,2.5c-1.3,1.1-2.5,2.3-3.6,3.6c2.1,0.1,3.5,1.2,4.1,3.3
	c-0.1,1-8.4,1-9.5,1.5c2.9-0.1,7.8-0.7,9.6,2.4c-7.5,3.9-3.2,9-12.6,8.5c-5.8-0.4-4.9-2.5-8.3,0.6c-2.3,2.1,2.1,1.8,1.4,3.5
	c-0.5,0.7-1.2,0.9-2.1,0.6c1.2,1.2,1.6,2.6,1.2,4.2c2.2-0.5,4.4-1.1,6.6-1.8c-0.3,1.5-0.9,2.9-1.8,4.2c9.3-0.5,6.1,6.3,7.8,13.8
	c5.3-5.3,16.9-3.9,23.4-4.8c-1,1.6-2,3.2-3,4.8c9.3-1.8,5.6,13.2,3.1,15.8c-4.7,5-16.3,3.4-21.3,4.5c-1.9,0.4-10.8,2.2-12.1,3.2
	c-0.3,0.2-4.4,8.3-4.1,8.9c1.6,4.5,21.5-5.4,28.4-1.8c-1,1.5-2.4,2.5-4.2,3c0.1,0.1,8.1,3.3,6.4,4.1c-1.3,0.1-2.2,0.7-2.8,1.9
	c5.8-1.2,0,6.4,3.8,10.4c3.3,3.5,16.6,2.3,20.8,1.6c-0.9,5.4,1.7,2.2,3.5,5.7c0.5,1,1.7,5.8,1.9,6.9c-0.6,0-9.6,0.1-9.6,0.9
	c0,0.9,8.5,1.4,9.6,1.5c-3.2,4-2,2.9-6,4.2c1.2,2.4,3.5,1.2,4.8,4.2c-7.1-1.8-2.6,1.6-7.1,3.3c-2.3,0.9-10.1-1.7-12.7-2.1
	c0.9,3.5,0.6,5.9,1.8,9.6c-3.5-0.9-3.3,2.6-4.2,6c1.5-0.3,2.9-0.9,4.2-1.8c0.5,2.3,1.1,1.6,3,2.4c-3.2,5.3,1,2.2,2.2,7.2
	c0.8,3,1.1,5.9,1.4,9c3.2-1.9,11.4,0.5,15.3-0.1c2.7-0.4,5.9-2,8.6-1.9c4.1,0.1,4.2,1.4,6.6,0.2c0,5.6,0.6,1.2,4.2,2.4
	c-1.6,1.2-3,2.6-4.2,4.2c2.7-0.4,5.1,0.1,6,3c0.8,2.8-9.6,1.4-9.6,3.6c3.2-0.4,6.4-0.8,9.6-1.2c-0.9,2.4-1.2,4.8-0.8,7.2
	c1,2.6-0.1,3.6-3.2,3.1c-1.1,1.8-1.6,0-0.2,4.1c-6.2,0-15.3-2.8-16.8,3.6c2.1,0,8.6,7.5,7.3,8c-1.4,0.6-4.1-0.5-5.5-0.8
	c1.4,2.5,2.4,5.1,3,7.8c-4.7,0-2.6,4.1-2.4,8.4c-2.6-0.1-6.2-0.5-8.4,1.2c7.1,0.5,10.8,0.5,5.2,8.2c-2.6,3.5-2.4,4.6-7,2.6
	c-1.2,3.6,3.9,8.2,3.3,9.6c-0.5,1.3-5-0.5-5.7-0.6c1.4,2.9,4.5,7.8,0,7.8c0.8,4.3-6,7.6-9.6,5.4c-0.9,5.5-4.2-0.4-7.6-1.2
	c-6.1-1.5-3.2,1.8-8.1,0c-3.4-1.3-5.2-4.2-8.8-4.2c-3.7,0-5.6,4.7-7.9,0c-0.3,3.8,3.3,12.2,2.4,15c-0.1,0.3-9.7,7-10.8,7.8
	c-0.4-1-1.9-6.6-3.6-6.6c0.2,2.4,0.4,4.8,0.6,7.2c-1.3-0.8-2.7-1-4.2-0.6c0-1.5-0.6-2.7-1.8-3.6c0,0-0.8,5.6-1.7,5.4
	c-0.6-0.2-3.5-6.2-3.7-6.6c-2.3,3.9-7.3,4.8-10.8,7.2c-0.2-0.5-1.3-7.2-3.6-7.2c0.2,2.8,0.4,5.6,0.6,8.4c-1.7-1.6-1.9-1.5-4.2-1.2
	c0.1-1.2-0.2-2.2-0.9-3.2c-1.5-1.3-2.1,4.9-2.1,5c-6.1-3-3.5-12-7.8-14.6c-5.2-3.2,0.2,17.1-8.4,6.8c-0.1,4.7-9.7,8.1-12.6,4.2
	c-5.6,5.2-10.5-0.8-16.2-4.2c0.8-1,1.5-2,2.1-3.2c0.5-2.1-5.9,0.9-5.7,0.8c1.5-2.3,3.5-9.2-1.1-8.4c-4.9,0.8-2.3,9.8-1.9,13.2
	c-5.7-1.1-1,4.5-7.5,5.6c-5.4,0.9-1,1.1-5.1-2c-1.2,8.3-2.9,1.7-5.2-0.5c-0.8-0.8-2.5,4.8-2.9,4.7c0.9,0.2-3.7-5.7-3.4-5.1
	c-1.3-2.5-0.8-6.2-1.2-9.8c-0.3-2-2.6-14.3-5.9-16.7c-5.3-3.7-6.8-0.1-9.1,3.6c-2,3.1-1.3,10.7-3.4,13c-1.5,1.7-8.6,1.8-11.4,4.8
	c-0.9-1.5-1.3-3.1-1.2-4.8c-2.8,1.4-2.8,1-6,2.4c0.2-2,0.4-4,0.6-6c-1.5,1.1-2.5,2.5-3,4.2c-4-4.6-6.9-4.8-4.2-10.8
	c-7.8,1.3-0.3-6.2,1.9-9.5c2-2.9,5.2-5.9,6.3-9.3c0.1-0.3-9.5,2.2-10.8,2.5c-4.5,1.2-12.4,4.9-15.3,4.1c-2.9-0.8-6.3-5.4-7.4-7.7
	c-0.2-0.5,1.1-1.2,1-1.9c-0.3-1.1-1.9,0.1-2.4-0.6c-0.6-1,2.9-5.4,3.3-5.8c-4.5-2.2-6.2-2-10.8-0.6c0.9-4.1-0.7-4.5-4.8-1.2
	c-0.4-1.7-1.4-2.9-2.9-3.7c-2.9-2-2.5-1.8-0.7-4.7c-7.3,2.4-2.4-3.3-0.6-6c-2.1,0.9-4.1,0.7-6-0.6c3.8-1.4,1.2-3.8,3.6-6
	c2.6-2.4,6-2.5,9-4.2c-3.3-3.3-25.1,3.5-19.8-5.4c-6.2,0.4-5.3-4.6-6-10.2c3,0.1,6,0.3,9,0.6c0-1-7.9-2.1-9-3c1-0.8,2.6-2.6,2.8-3.4
	c-0.2,0.6,4.1-1.2,3.8-0.8c-0.9-0.5-4.6-1.8-4.8-3c-0.8-4,17.6-1.3,18.6-0.6c0-3.8,7-0.6,11-0.6c6.2,0,12.4-1.2,18.4-2.4
	c-6.9-3.4,2-4.4,3.6-10.2c-1.9-0.7-3.9-1.1-6-1.2c0.4-1.4,1.2-2.4,2.4-3c-0.7-0.6-4.4-2.7-4.2-3.9c0.2-1,4.8-1.4,5.4-1.5
	c-1.7,0-5.5-1.9-7-1.6c-1.8,0.3-3,2.6-4.9,3c-3.5,0.8-6.2,0.9-10.3,1.6c0.9-1.1,1.7-2.3,2.4-3.6c-1.3-0.6-2.5-0.4-3.6,0.6
	c-0.4-1.9-1.6-2.2-2.3-3.5c-1.2-2.1-0.5-10-0.7-12.7c2.9,0.3,4.5-0.5,4.8-3.6c-7.1,0-16.3,2.6-21-5.4c8-2,0.7-3.1,0.6-7.3
	c-0.2-5.5,7.2-7,7.2-11.3c7.9,3.6,17.4,3.8,23.7,3.8c0.9,0,2.1-1.2,4-1.2c4,0.1,11.2,4.3,10.1-1.5c2.2,0.8,4.4,1.6,6.6,2.4
	c0.4-3.6,4.3-6.3,1.2-8.4c3.9-3,3.7-4.1,0.6-6.6c2.2-0.8,4.4-1.6,6.6-2.4c-2.2-0.6-4.4-0.6-6.6,0c0.3-1.7,3-10.6,3.1-10.5
	c-1.7-3-6.5-1.8-9.6-2.5c-2.2-0.5-4.6-1.7-6.7-2.6c-5.2-2.4-3.8-0.3-5.5-4.9c-2.1-5.6-2.5-12.9,4.8-12.5c-0.5-1.8-1.3-3.4-2.4-4.8
	c3.3,1.5,5.4-0.5,8.1,0.1c4.9,1.1,10.4,4.9,15.6,6.2c8.2,2.1,14.5,5.6,21.3,1.6c-4.4-3.5,5.8-4.8,6-7.8c0.3-3.9-8.4,3.7-6.6,2.4
	c-1.2-4.8-8.3,2-12.4,2c-4.2,0-2.5-4-8.6-3.2c1.4-0.8,2.6-1.8,3.6-3c-2.2-1.1-4.2-2.5-6-4.2c1.7-0.2,3.1-1,4.2-2.4
	c-9.2,0.7-1-8.6-0.6-12.6c4,1.6,30-2.1,24.7-8.4c-4.7-5.6-20,2.1-25.9-7.8c4.4-2.2-0.6-3.8,0.6-8.4c0.8-3.3,5.2-4.5,5.4-8.4
	c0.2,0.1,6.2,2.4,6,0.5c-0.4-3.7-3.6-2.1-6.9-3c-3.8-1-23.1-11-9.9-9.5c-3.7-3-4.2-4.4-1.6-8.9c3.7-6.5,7.9-5.1,13.3-3.4
	c3.6,1.1,7.1,2.6,10.8,3.6c1.5,0.4,2.9,0.8,4.4,1.2c2.9,2.6,4.6,2.5,5.1-0.4c0.7-0.1,1-3.1,2.1-3.5c2.8-1,1.6,5.2,3-1.8
	c1.8,1.3,9.6,4.2,7.9-0.1c-1.2-2.9-10.8-0.7-12.1-7.1c4-1.2-0.2-3.1,0.9-5.3c1.6-3.1,7-5.6,7.6-9.2c1.1-6.9-13.5-11.5-15.7-20.3
	c5.2,1,1.9-2.2,4.8-5.7c3.4-4.2,8.4-0.3,8.4-4.5c5.6,1.8,12,13.5,17.3,11.9c7.9-2.5-1.7-9.1-2-13.7c-0.2-3.3,2.1-5.3,1.2-8.6
	c-0.7-2.5-5.1-3.6-6.2-6.3c-1.8-4.4,0.3-7.5,2.8-10.3c3.2-3.6,2.5-2.7,7.3-2.9c-1.4-4.1-2.4-8.4-3.6-12.6c4.5-0.1,8.5-3.5,12.9-4.4
	c3.2-0.7,4.7,1.8,6.8-0.6c2.4-2.7-4.4-23.8,3-24.4c1.7-0.1,0.7,3.1,1.8,3.6c0.2,0.1,3.5-6.7,4.3-3.7C179.5,11.6,177,12.5,178.2,10.8
	C180.6,11.2,176.7,12.8,178.2,10.8z"/>
</svg>
