<?xml version="1.0" encoding="utf-8"?>
<!-- Generator: Adobe Illustrator 18.1.1, SVG Export Plug-In . SVG Version: 6.00 Build 0)  -->
<svg version="1.1" id="Слой_1" xmlns="http://www.w3.org/2000/svg" xmlns:xlink="http://www.w3.org/1999/xlink" x="0px" y="0px"
	 viewBox="-200 187 98 128" enable-background="new -200 187 98 128" xml:space="preserve">
<title>tree</title>
<path fill="#278D9F" d="M-154,190.9c-0.6,0.7-5.3,6.3-10.2,12.5c-5,6.2-11.7,14.5-14.9,18.5c-3.2,4-5.8,7.4-5.8,7.6
	c0,0.2,14.8,0.4,33.2,0.4c30.1,0,33.1-0.1,32.9-0.7c-0.1-0.4-3.1-4.2-6.6-8.5c-3.5-4.3-9.1-11.1-12.4-15.2l-6-7.4v5.5
	c0,5.4,0.3,6.7,2,9.1c0.1,0.1,1.1,0.3,2.2,0.6c4,0.7,4.6,2.4,2.1,5.3c-1.6,1.7-2.1,4.3-1.2,5.7c1.1,1.8-2,3.3-4.4,2.2
	c-2.2-1.1-3.2-1.1-4.7-0.2c-3.2,1.8-5.1,0.5-4.7-3.1c0.3-2.4,0.3-2.5-1.5-4.4c-2.5-2.7-2.1-4.7,1.2-5.2c2.9-0.5,3.2-0.7,4.3-2.9
	c1-2,1.1-2.6,1.1-9.4v-7.2l-1.4-1.7C-151.1,189.2-152.2,189-154,190.9L-154,190.9z M-146.7,214.2c-0.4,0.6-1.4,1.4-2.2,1.8
	c-1.9,1-1.9,0.9-1,1.9c0.4,0.5,0.9,1.6,1,2.5l0.2,1.7h5.9l0.1-1.5c0-0.8,0.5-2.1,1-2.7l0.9-1.2l-1.5-0.5c-0.8-0.3-2-1.1-2.5-1.8
	l-1-1.3L-146.7,214.2L-146.7,214.2z M-179.1,242c-3.9,4.8-8.2,10-9.6,11.7c-3.4,4.1-3.7,3.9,5.4,3.9h7.9l-0.6-1.1
	c-1.2-2.4,0.1-3.9,4.1-4.6c2.8-0.4,4.9-1.4,4.9-2.2c0-0.2,0.6-1.4,1.3-2.7c1.3-2.2,1.3-2.4,1.3-8v-5.7h-7.8L-179.1,242L-179.1,242z
	 M-160.7,238.8v5.4l1.8,3.4c2,3.6,2.4,3.9,6.7,4.5c3.3,0.4,4.3,2,3.2,4.8c-0.3,0.7,0.7,0.8,18.1,0.8c13.2,0,18.4-0.1,18.2-0.5
	c-0.1-0.3-4.4-5.7-9.6-12.1l-9.4-11.7h-29L-160.7,238.8L-160.7,238.8z M-163.3,250.3c-1,2.7-4.6,5.1-7.7,5.1c-1.1,0-1,0.5,0.8,2.2
	c1.9,1.8,2.6,4.1,2.2,7.1l-0.3,2.3l1.9-1c2.6-1.3,5.4-1.4,7.8-0.1c2.3,1.2,2.3,1.2,1.8-1.2c-0.6-3.2,0-4.9,2.7-7.9l1.3-1.4l-2.2-0.3
	c-2.8-0.4-5.4-2.2-6.5-4.6C-162.4,248.4-162.6,248.4-163.3,250.3L-163.3,250.3z M-184.3,266.7c-2.4,3-6.4,7.9-8.7,10.9
	s-4.3,5.5-4.3,5.7s20.5,0.3,45.5,0.3s45.5-0.2,45.5-0.4c0-0.2-4-5.3-8.8-11.3l-8.8-10.9h-14.5c-16.6,0-15.2-0.5-14.4,4.7
	c0.7,5.2-1.2,6.3-6.3,3.6c-2.8-1.5-3.2-1.5-6.7,0.3c-4.6,2.3-6.6,0.9-5.7-4.2c0.7-4.4,0.7-4.4-4.1-4.4l-4,0L-184.3,266.7
	L-184.3,266.7z M-156.3,298.7c0,14.1,0.1,14.5,4.8,14.5c1,0,1.8-0.4,2.8-1.3l1.3-1.3v-23.5h-8.8V298.7z"/>
</svg>
