<?xml version="1.0" encoding="utf-8"?>
<!-- Generator: Adobe Illustrator 18.1.1, SVG Export Plug-In . SVG Version: 6.00 Build 0)  -->
<svg version="1.1" id="Слой_1" xmlns="http://www.w3.org/2000/svg" xmlns:xlink="http://www.w3.org/1999/xlink" x="0px" y="0px"
	 viewBox="0 0 20 20" enable-background="new 0 0 20 20" xml:space="preserve">
<rect x="9.5" y="1" fill="#FFFFFF" width="1" height="18"/>
<rect x="8.5" y="3" fill="#FFFFFF" width="1" height="1"/>
<rect x="7.5" y="6" fill="#FFFFFF" width="1" height="1"/>
<rect x="11.5" y="13" fill="#FFFFFF" width="1" height="1"/>
<rect x="5.5" y="9.5" transform="matrix(0.5 -0.866 0.866 0.5 -5.6603 10.1603)" fill="#FFFFFF" width="1" height="1"/>
<rect x="13.5" y="9.5" transform="matrix(0.5 -0.866 0.866 0.5 -1.6603 17.1603)" fill="#FFFFFF" width="1" height="1"/>
<rect x="7.5" y="13" transform="matrix(-0.5 -0.866 0.866 -0.5 0.2776 27.1244)" fill="#FFFFFF" width="1" height="1"/>
<rect x="11.5" y="6" transform="matrix(-0.5 -0.866 0.866 -0.5 12.4019 20.1962)" fill="#FFFFFF" width="1" height="1"/>
<rect x="7.5" y="2" fill="#FFFFFF" width="1" height="1"/>
<rect x="6.5" y="1" fill="#FFFFFF" width="1" height="1"/>
<rect x="10.5" y="3" fill="#FFFFFF" width="1" height="1"/>
<rect x="11.5" y="2" fill="#FFFFFF" width="1" height="1"/>
<rect x="12.5" y="1" fill="#FFFFFF" width="1" height="1"/>
<rect x="9.5" y="1" fill="#FFFFFF" width="1" height="18"/>
<rect x="10.5" y="16" fill="#FFFFFF" width="1" height="1"/>
<rect x="11.5" y="17" fill="#FFFFFF" width="1" height="1"/>
<rect x="12.5" y="18" fill="#FFFFFF" width="1" height="1"/>
<rect x="8.5" y="16" fill="#FFFFFF" width="1" height="1"/>
<rect x="7.5" y="17" fill="#FFFFFF" width="1" height="1"/>
<rect x="6.5" y="18" fill="#FFFFFF" width="1" height="1"/>
<rect x="9.5" y="1" transform="matrix(0.5 -0.866 0.866 0.5 -3.6603 13.6603)" fill="#FFFFFF" width="1" height="18"/>
<rect x="3.4" y="7.1" transform="matrix(0.5 -0.866 0.866 0.5 -4.6603 7.1603)" fill="#FFFFFF" width="1" height="1"/>
<rect x="2" y="7.5" transform="matrix(0.5 -0.866 0.866 0.5 -5.6603 6.1603)" fill="#FFFFFF" width="1" height="1"/>
<rect x="0.6" y="7.8" transform="matrix(0.5 -0.866 0.866 0.5 -6.6603 5.1603)" fill="#FFFFFF" width="1" height="1"/>
<rect x="4.4" y="5.4" transform="matrix(0.5 -0.866 0.866 0.5 -2.6603 7.1603)" fill="#FFFFFF" width="1" height="1"/>
<rect x="4" y="4" transform="matrix(0.5 -0.866 0.866 0.5 -1.6603 6.1603)" fill="#FFFFFF" width="1" height="1"/>
<rect x="3.6" y="2.7" transform="matrix(0.5 -0.866 0.866 0.5 -0.6603 5.1603)" fill="#FFFFFF" width="1" height="1"/>
<rect x="9.5" y="1" transform="matrix(-0.5 0.866 -0.866 -0.5 23.6603 6.3397)" fill="#FFFFFF" width="1" height="18"/>
<rect x="15.6" y="11.9" transform="matrix(-0.5 0.866 -0.866 -0.5 34.9186 4.6077)" fill="#FFFFFF" width="1" height="1"/>
<rect x="17" y="11.5" transform="matrix(-0.5 0.866 -0.866 -0.5 36.6506 2.8756)" fill="#FFFFFF" width="1" height="1"/>
<rect x="18.4" y="11.2" transform="matrix(-0.5 0.866 -0.866 -0.5 38.3827 1.1436)" fill="#FFFFFF" width="1" height="1"/>
<rect x="14.6" y="13.6" transform="matrix(-0.5 0.866 -0.866 -0.5 34.9186 8.0718)" fill="#FFFFFF" width="1" height="1"/>
<rect x="15" y="15" transform="matrix(-0.5 0.866 -0.866 -0.5 36.6506 9.8038)" fill="#FFFFFF" width="1" height="1"/>
<rect x="15.4" y="16.3" transform="matrix(-0.5 0.866 -0.866 -0.5 38.3827 11.5359)" fill="#FFFFFF" width="1" height="1"/>
<rect x="9.5" y="1" transform="matrix(-0.5 -0.866 0.866 -0.5 6.3397 23.6603)" fill="#FFFFFF" width="1" height="18"/>
<rect x="4.4" y="13.6" transform="matrix(-0.5 -0.866 0.866 -0.5 -4.9186 25.3923)" fill="#FFFFFF" width="1" height="1"/>
<rect x="4" y="15" transform="matrix(-0.5 -0.866 0.866 -0.5 -6.6506 27.1244)" fill="#FFFFFF" width="1" height="1"/>
<rect x="3.6" y="16.3" transform="matrix(-0.5 -0.866 0.866 -0.5 -8.3827 28.8564)" fill="#FFFFFF" width="1" height="1"/>
<rect x="3.4" y="11.9" transform="matrix(-0.5 -0.866 0.866 -0.5 -4.9186 21.9282)" fill="#FFFFFF" width="1" height="1"/>
<rect x="2" y="11.5" transform="matrix(-0.5 -0.866 0.866 -0.5 -6.6506 20.1962)" fill="#FFFFFF" width="1" height="1"/>
<rect x="0.6" y="11.2" transform="matrix(-0.5 -0.866 0.866 -0.5 -8.3827 18.4641)" fill="#FFFFFF" width="1" height="1"/>
<rect x="9.5" y="1" transform="matrix(0.5 0.866 -0.866 0.5 13.6603 -3.6603)" fill="#FFFFFF" width="1" height="18"/>
<rect x="14.6" y="5.4" transform="matrix(0.5 0.866 -0.866 0.5 12.6603 -10.1603)" fill="#FFFFFF" width="1" height="1"/>
<rect x="15" y="4" transform="matrix(0.5 0.866 -0.866 0.5 11.6603 -11.1603)" fill="#FFFFFF" width="1" height="1"/>
<rect x="15.4" y="2.7" transform="matrix(0.5 0.866 -0.866 0.5 10.6603 -12.1603)" fill="#FFFFFF" width="1" height="1"/>
<rect x="15.6" y="7.1" transform="matrix(0.5 0.866 -0.866 0.5 14.6603 -10.1603)" fill="#FFFFFF" width="1" height="1"/>
<rect x="17" y="7.5" transform="matrix(0.5 0.866 -0.866 0.5 15.6603 -11.1603)" fill="#FFFFFF" width="1" height="1"/>
<rect x="18.4" y="7.8" transform="matrix(0.5 0.866 -0.866 0.5 16.6603 -12.1603)" fill="#FFFFFF" width="1" height="1"/>
</svg>
