<?xml version="1.0" encoding="utf-8"?>
<!-- Generator: Adobe Illustrator 18.1.1, SVG Export Plug-In . SVG Version: 6.00 Build 0)  -->
<svg version="1.1" id="Слой_1" xmlns="http://www.w3.org/2000/svg" xmlns:xlink="http://www.w3.org/1999/xlink" x="0px" y="0px"
	 viewBox="4 -44 95 128" enable-background="new 4 -44 95 128" xml:space="preserve">
<title>ball</title>
<path fill="#29909B" d="M50.4-43.9C49-43.2,49-43.2,49-34.6v7.2h-3.5c-5,0-6.3,0.5-7.6,2.8c-0.7,1.3-0.7,1-0.8,8.9l0,7.1l-1,0.4
	C18.7-2.3,6.5,12.8,4.2,31.1C4,33.1,4,39.8,4.2,41.6c1.7,14.2,8.7,25.9,20.1,33.9c11.9,8.4,27.9,10.8,41.8,6.2
	c27.5-9,40.7-40.2,28-66.1C88.5,4.4,77.8-4.9,66.4-8.5l-0.6-0.2l0-7.1c0-7.9,0-7.6-0.8-8.9c-1.3-2.3-2.6-2.8-7.6-2.8h-3.5l0-7.4
	l0-7.4l-0.3-0.5C53-43.8,51.5-44.3,50.4-43.9L50.4-43.9z"/>
<path fill="#FFFFFF" d="M34.8,8.8c-1.3,2.6-2.4,4.7-2.4,4.7s-2.4,0.4-5.2,0.8s-5.1,0.8-5.1,0.8s1.7,1.7,3.7,3.7c2,2,3.7,3.7,3.7,3.7
	s-0.4,2.4-0.8,5.2s-0.9,5.1-0.8,5.1s2.1-1,4.7-2.4l4.7-2.4l4.7,2.5c2.6,1.3,4.7,2.4,4.7,2.4c0,0-1.6-9.6-1.7-10.2
	c0-0.2,0.7-0.9,3.7-3.9c2.1-2,3.8-3.7,3.8-3.7s-2.3-0.4-5.2-0.8L42,13.5l-2.4-4.7c-1.3-2.6-2.4-4.7-2.4-4.7S36.1,6.2,34.8,8.8
	L34.8,8.8z"/>
<path fill="#FFFFFF" d="M63.3,44.3c-1.6,3.3-2.4,4.7-2.5,4.7c-0.1,0-2.5,0.4-5.2,0.8s-5,0.7-5.1,0.8c0,0,1,1.1,2.3,2.3
	s3,2.9,3.8,3.7l1.5,1.4l-0.9,5.2c-0.5,2.8-0.9,5.2-0.9,5.2s2.1-1.1,4.7-2.4l4.7-2.5l4.7,2.5c2.6,1.3,4.7,2.4,4.7,2.4
	s-0.4-2.4-0.8-5.2L73.3,58l2.6-2.5c4.7-4.6,5-4.8,4.9-4.9c0,0-2.4-0.4-5.2-0.8s-5.2-0.8-5.2-0.8c0,0-1.1-2.1-2.3-4.7
	s-2.3-4.7-2.4-4.7C65.6,39.7,64.6,41.8,63.3,44.3L63.3,44.3z"/>
</svg>
