<?xml version="1.0" encoding="utf-8"?>
<!-- Generator: Adobe Illustrator 18.1.1, SVG Export Plug-In . SVG Version: 6.00 Build 0)  -->
<svg version="1.1" id="Слой_1" xmlns="http://www.w3.org/2000/svg" xmlns:xlink="http://www.w3.org/1999/xlink" x="0px" y="0px"
	 viewBox="-217 219 64 64" enable-background="new -217 219 64 64" xml:space="preserve">
<title>ball</title>
<path opacity="0.74" fill="#FFFFFF" d="M-187.5,220.6c-1.9,1.3-2.4,3.5-1.3,5.6l0.5,1l-2.8,0.7l0,2.9l0,2.9l-1.4,0.4
	c-12.9,3.6-20.5,18.3-16.3,31.1c4.9,14.9,21.4,21.4,35.8,14.1c2.3-1.1,6.2-4.8,7.7-7.1c0.5-0.8,1.1-1.7,1.4-1.9s0.5-0.6,0.4-0.7
	c-0.1-0.1,0-0.3,0.1-0.4c0.6-0.3,1.7-3.8,2.4-7.1c2.3-11.5-5.6-24.6-16.9-27.9l-1.4-0.4l0-2.9c0-3.4,0.1-3-1.4-3.3
	c-1.5-0.3-1.5-0.3-0.9-1.3C-179.3,222.5-183.9,218.1-187.5,220.6L-187.5,220.6z M-183.5,221.1c2,1.1,2.4,3.8,0.7,5.6
	c-0.8,0.8-3.9,0.8-4.6,0C-190.2,223.6-187.1,219.2-183.5,221.1z"/>
<text transform="matrix(1 0 0 1 -207.334 258.667)" fill="#2F1DDB" font-family="'MyriadPro-Regular'" font-size="10.8">Добавить</text>
</svg>
