<?xml version="1.0" encoding="utf-8"?>
<!-- Generator: Adobe Illustrator 18.1.1, SVG Export Plug-In . SVG Version: 6.00 Build 0)  -->
<svg version="1.1" id="Ğ¡Ğ»Ğ¾Ğ¹_1" xmlns="http://www.w3.org/2000/svg" xmlns:xlink="http://www.w3.org/1999/xlink" x="0px" y="0px"
	 viewBox="-128 206 242 90" enable-background="new -128 206 242 90" xml:space="preserve">
<title>rss</title>
<path fill="#278D9F" d="M9.2,209.3c-6.9,1.6-10.4,5.3-10.4,11c0,6.7,3.7,9.8,15.8,13c5.9,1.5,7.9,4.2,5.1,6.8
	c-3.2,2.9-9.3,1-10.1-3.1c-0.4-2.1-0.4-2.1-6.8-1.7l-5.7,0.3l0.3,1.8c0.4,2.8,2.7,7.1,4.7,8.8c5.8,5,21.8,4.5,27.3-0.9l1.6-1.6
	l0.3,1.8c1.1,6.7,7.9,12.9,15.7,14.5l2.5,0.5l-1.5,1.9c-4.9,6.4-5,19.4-0.3,26.2c7.2,10.4,27.6,10.1,34.4-0.5l1.2-2v9.4h31.6v-10.1
	H95.9v-29.4H83.2l0,4.5c0,3.7-0.1,4.3-0.5,3.6c-2.4-4-7.1-7.3-11.7-8.2l-2.5-0.5l2.5-1.9c7.9-5.9,12.8-16.7,11.5-25.3
	c-3.3-22.7-36-23-48.4-0.5c-0.8,1.4-1.5,2.7-1.5,2.7c0,0.1-1.2-1-2.5-2.2c-2.8-2.7-5-3.7-12.6-5.5c-7-1.7-8.5-3-6.1-5.2
	c2.3-2.1,7.1-0.7,8.3,2.3c0.6,1.8,0.5,1.8,8,1.3l4.3-0.3l-0.3-1.7C30.3,211.1,20.3,206.7,9.2,209.3L9.2,209.3z M-125.4,229.3V249
	h12.7v-15.8h1.3c2,0,3.3,1.5,7.2,8.8l3.7,6.8l7.1,0.1c3.9,0.1,7.1,0,7.1-0.1c0-2.2-7.9-15.1-10.1-16.4l-1.2-0.7l2.4-1.3
	c9-4.7,7.3-18.3-2.6-20.4c-1.2-0.3-7.6-0.5-14.9-0.5h-12.7V229.3L-125.4,229.3z M67.4,213c19.9,5.2,18.1,33.1-2.8,43.2
	c-21.3,10.4-40.2-6.7-30.1-27C40.4,217.3,55.4,209.8,67.4,213L67.4,213z M-103.9,218.4c4.5,2.3,1.5,6.4-4.8,6.8l-3.9,0.2v-7.6l3.8,0
	C-106.6,217.9-104.5,218.1-103.9,218.4L-103.9,218.4z M60.4,221.9c-3.5,0.9-7.1,4.5-7.1,7c0,4.2,3.3,5.7,8.6,3.9
	c3.2-1.1,4-1.1,4.6,0c1,1.9-2.3,3.8-4.2,2.4c-1-0.7-4.5,1.5-4.6,2.7c-0.1,1.9,4.8,2.6,7.8,1.2c9.4-4.7,6.8-14.8-3-11.4
	c-3.9,1.4-4.8,1.4-4.8,0.3c0-1.7,2.7-2.9,3.8-1.8c0.5,0.5,4.1-1.9,4.1-2.7C65.6,222.4,62.4,221.4,60.4,221.9L60.4,221.9z
	 M46.2,231.4c-2.1,1.5-2.2,1.1,1.6,6.6c2.4,3.4,3.3,5,3.2,5.8c-0.2,1.3-1.7,1.7-2.7,0.6c-0.7-0.7-0.8-0.6-2.4,0.7
	c-4,3.4,2.1,6.4,6.6,3.2c5-3.5,5-5.7,0-12.9C48.7,229.8,48.5,229.7,46.2,231.4L46.2,231.4z M-115,255.6c-7.2,1.1-11.4,5.3-11.4,11.4
	c-0.1,6.2,4,9.8,14,12.3c6.1,1.5,8.1,2.7,8.1,4.7c0,5.7-10.2,5.1-11.2-0.6c-0.4-2-0.3-2-6.8-1.6l-5.7,0.3l0.3,1.8
	c1.3,8.3,6.1,11.7,16.8,12c8.5,0.3,11.4-0.6,15.1-4.3l2.5-2.5l0.9,1.3c5.4,7.3,23.6,7.8,29.6,0.8c1.7-2,3.7-5.9,3.9-7.6
	c0.1-1.2,0.1-1.3-5.2-2.9l-5.4-1.6l-0.7,2.2c-2.5,7.4-11.7,7.5-13.7,0.1c-0.7-2.5-0.6-8.5,0.2-11c1.8-6.2,9.6-7.5,12.8-2.1
	c1.3,2.3,1,2.2,6.9,0.9c5.7-1.3,5.5-1.1,4.2-3.9c-5.2-11.1-22.5-13.7-31.7-4.8l-2.6,2.5l-1.1-1.8C-97.9,256.6-106.3,254.2-115,255.6
	L-115,255.6z M6.3,255.6c-4.9,0.8-9.7,3.9-12.4,7.9c-0.7,1.1-0.7,1-0.8-3.2l0-4.3h-12.7v13.6h-12.7V256H-45v39.5h12.7v-15.8h12.7
	v15.8h12.7v-8.9l1.4,2.1c5.7,8.6,23.4,10.1,31.5,2.7c9.3-8.6,7.5-28.2-3.1-33.7C18.8,255.6,11.6,254.7,6.3,255.6L6.3,255.6z
	 M-107.8,263.7c0.7,0.4,1.6,1.4,2.1,2.5l0.8,1.8l8.6-0.4l-0.3,2.2c-0.4,3-0.5,3.1-3,2c-1.2-0.5-4.4-1.5-7.2-2.2
	c-6.6-1.7-7.5-2-7.8-3.4C-115.3,263.7-110.9,262.1-107.8,263.7L-107.8,263.7z M13.9,265.3c6.5,1.8,7.8,16.7,1.8,20.3
	c-4.5,2.6-10.2,0.4-11.5-4.6C1.5,271.1,6.4,263.2,13.9,265.3z M67,265.3c7.6,2.1,7.4,19.1-0.2,21.1c-6.1,1.6-10.2-2.6-10.1-10.6
	C56.7,267.5,60.6,263.5,67,265.3L67,265.3z"/>
</svg>
